<svg xmlns="http://www.w3.org/2000/svg" width="250" height="268" viewBox="0 0 250 268">
<g>
<path d="M 112.50 229.42 C107.55,227.48 102.28,225.51 100.78,225.03 C97.29,223.91 87.60,218.73 87.17,217.75 C86.98,217.34 86.40,217.00 85.86,217.00 C82.24,217.00 55.00,193.09 55.00,189.92 C55.00,189.41 54.61,189.00 54.14,189.00 C53.83,189.00 53.46,190.11 53.16,191.76 C53.48,187.94 53.05,186.61 51.08,182.90 C49.66,180.21 48.17,178.01 47.77,178.01 C47.37,178.00 46.17,179.69 45.11,181.75 C42.37,187.09 37.30,191.71 35.55,190.47 C26.85,184.36 21.93,181.42 16.96,179.40 C10.91,176.95 8.25,176.41 7.36,177.81 C7.19,174.83 7.10,170.44 7.13,165.25 C7.15,160.33 7.23,156.42 7.45,153.21 C7.70,155.25 8.73,155.54 14.76,157.07 C23.00,159.16 38.55,166.83 41.99,170.49 C44.81,173.49 46.21,172.89 44.92,169.23 C44.29,167.43 41.22,164.72 36.87,161.94 C37.49,162.33 38.05,162.69 38.53,163.02 L 43.00 166.10 L 43.00 28.43 L 37.50 23.00 C34.47,20.01 32.00,17.22 32.00,16.78 C32.00,16.35 45.50,16.00 62.00,16.00 L 92.00 16.00 L 92.00 7.00 L 156.77 7.00 L 157.45 11.50 L 158.12 16.00 L 187.06 16.00 C202.98,16.00 216.00,16.35 216.00,16.79 C216.00,17.22 213.75,19.79 211.00,22.50 L 206.00 27.42 L 206.00 166.02 L 211.25 162.57 C214.14,160.66 219.22,157.94 222.55,156.51 L 224.61 155.63 L 220.05 157.79 C210.26,162.44 205.45,166.31 204.58,170.24 C203.98,172.94 204.08,172.91 211.23,168.06 C219.11,162.72 231.07,157.49 237.93,156.39 L 241.46 155.83 C241.49,158.15 241.50,160.98 241.50,164.45 L 241.50 177.36 C241.18,177.09 240.65,177.02 239.82,177.02 C234.98,177.07 225.93,181.69 213.46,190.47 C211.72,191.70 207.79,188.17 204.30,182.23 L 201.79 177.97 L 198.36 183.66 C195.31,188.72 195.01,189.86 195.61,193.93 C195.68,194.40 195.77,194.95 195.89,195.53 C195.73,194.84 195.61,194.22 195.53,193.72 L 194.90 189.95 L 191.12 194.72 C186.10,201.05 176.66,209.71 169.78,214.27 C161.63,219.68 147.35,226.38 137.04,229.64 C132.07,231.21 128.00,232.77 128.00,233.10 C128.00,233.13 128.01,233.16 128.04,233.19 C127.69,233.20 127.34,233.20 127.00,233.21 C124.93,233.22 122.21,232.98 119.03,232.53 C118.96,232.14 116.81,231.10 112.50,229.42 ZM 61.29 190.09 C62.51,191.62 63.80,192.80 64.17,192.69 C64.55,192.59 77.97,174.05 94.00,151.50 C110.03,128.95 123.54,110.09 124.03,109.59 C124.56,109.05 125.56,109.22 126.51,110.01 C127.38,110.73 141.46,129.51 157.79,151.73 L 187.48 192.14 L 189.68 189.38 C190.89,187.86 191.57,186.10 191.19,185.48 C190.81,184.85 177.74,166.91 162.14,145.62 C146.53,124.32 134.05,106.62 134.39,106.28 C134.54,106.12 134.49,105.76 134.60,105.70 C135.03,105.45 137.89,109.50 163.97,145.25 C179.53,166.56 192.58,184.00 192.98,184.00 C193.93,184.00 199.54,171.62 200.92,166.50 C201.61,163.92 201.99,145.87 201.99,115.75 L 202.00 69.00 L 47.95 69.00 L 48.22 118.25 L 48.50 167.50 L 52.81 176.31 C55.18,181.16 57.56,184.98 58.09,184.80 C58.63,184.62 71.65,166.93 87.03,145.49 L 115.00 106.50 L 115.00 89.75 L 115.00 73.00 L 124.50 73.00 C130.17,73.00 134.00,73.40 134.00,74.00 C134.00,74.55 133.65,74.89 133.23,74.75 C132.81,74.61 131.37,75.51 130.04,76.75 C127.25,79.35 124.21,79.63 121.44,77.53 C117.26,74.37 117.00,75.18 117.00,91.31 L 117.00 106.62 L 88.04 146.96 L 59.09 187.29 ZM 98.24 218.66 C100.58,219.85 102.54,220.86 102.60,220.91 C102.65,220.96 107.79,213.57 114.03,204.50 C120.27,195.43 125.71,188.00 126.13,188.00 C126.55,188.00 131.93,194.99 138.08,203.53 C144.24,212.07 149.60,219.26 150.00,219.50 C151.00,220.12 159.00,216.17 159.00,215.06 C159.00,214.56 153.33,206.44 146.40,197.02 C139.46,187.59 134.04,179.63 134.34,179.33 C134.63,179.03 140.76,186.71 147.95,196.39 C155.14,206.08 161.40,214.00 161.85,214.00 C163.12,214.00 176.20,204.57 178.73,201.83 L 180.95 199.42 L 153.73 161.75 C138.75,141.03 125.98,124.07 125.35,124.04 C124.43,124.01 95.81,163.62 74.55,194.35 L 70.50 200.20 L 74.00 203.21 C78.21,206.84 90.49,215.00 91.74,215.00 C92.81,215.00 117.00,179.62 117.00,178.05 C117.00,177.45 113.79,172.67 109.86,167.45 C105.93,162.22 102.96,157.70 103.27,157.40 C103.94,156.72 119.00,176.47 119.00,178.03 C119.00,178.65 113.55,187.11 106.88,196.83 C100.21,206.55 94.58,214.95 94.37,215.50 C94.16,216.05 95.90,217.47 98.24,218.66 ZM 109.90 236.02 C122.09,238.30 128.69,238.39 139.14,236.44 C150.45,234.33 158.15,231.99 178.89,224.34 C197.28,217.56 215.24,212.46 224.65,211.35 C227.87,210.98 230.39,210.14 230.70,209.35 C230.72,209.28 230.75,209.21 230.77,209.14 C230.91,212.31 231.00,216.76 231.00,221.45 L 231.00 236.74 L 224.90 237.43 C230.46,236.80 231.00,236.53 231.00,234.37 C231.00,231.48 229.49,231.38 218.31,233.50 C209.49,235.17 201.14,237.77 174.00,247.29 C144.22,257.74 130.64,260.03 113.50,257.50 C98.49,255.29 90.44,253.15 62.39,243.95 C39.67,236.49 23.71,232.02 19.75,232.01 C19.17,232.00 18.73,232.21 18.42,232.55 C18.71,229.87 18.99,223.08 19.07,216.59 C19.10,213.98 19.11,211.88 19.17,210.15 C19.42,210.94 20.16,211.00 21.86,211.00 C26.69,211.00 46.14,216.41 64.84,222.95 C86.28,230.45 97.52,233.71 109.90,236.02 ZM 115.26 225.42 L 125.01 228.79 L 133.76 226.02 C138.57,224.50 143.78,222.74 145.36,222.11 C148.20,220.97 148.21,220.96 146.43,218.23 C141.57,210.77 126.79,191.00 126.07,191.00 C124.57,191.00 103.69,221.94 105.14,222.02 C105.34,222.03 109.89,223.56 115.26,225.42 ZM 42.65 21.00 L 47.35 26.00 L 91.00 26.00 L 91.00 21.00 L 42.65 21.00 ZM 157.67 25.33 C158.03,25.70 168.08,26.00 179.99,26.00 L 201.65 26.00 L 206.35 21.00 L 181.67 21.00 C158.41,21.00 157.00,21.11 157.00,22.83 C157.00,23.84 157.30,24.97 157.67,25.33 ZM 181.54 60.07 C182.96,62.36 185.00,60.89 185.00,57.57 C185.00,54.81 185.43,54.08 187.17,53.82 C190.06,53.39 190.80,51.00 188.05,51.00 C186.35,51.00 186.11,50.65 186.83,49.25 C188.11,46.77 188.93,38.00 187.88,38.00 C187.39,38.00 187.00,37.33 187.00,36.50 C187.00,35.67 186.32,35.00 185.50,35.00 C184.68,35.00 184.00,35.71 184.00,36.57 C184.00,37.70 183.42,37.95 181.92,37.48 C180.17,36.92 179.90,37.19 180.17,39.16 C180.42,40.93 180.07,41.43 178.75,41.21 C176.79,40.88 176.24,44.41 178.08,45.55 C178.76,45.97 178.40,46.91 177.08,48.14 C174.90,50.17 174.55,51.22 175.67,52.34 C176.56,53.22 180.00,50.05 180.00,48.35 C180.00,46.42 181.32,46.69 182.70,48.89 C184.08,51.10 183.64,51.70 179.25,53.54 C177.46,54.29 176.00,55.42 176.00,56.06 C176.00,56.77 176.68,56.94 177.75,56.49 C181.81,54.82 183.00,54.79 183.00,56.32 C183.00,57.18 182.54,58.16 181.98,58.51 C181.42,58.86 181.23,59.56 181.54,60.07 ZM 68.64 61.31 C70.00,62.67 71.00,60.70 71.00,56.64 C71.00,54.31 71.54,51.86 72.20,51.20 C73.13,50.27 73.02,50.00 71.70,50.00 C70.72,50.00 70.00,49.22 70.00,48.16 C70.00,46.88 71.22,45.95 74.00,45.12 C76.20,44.46 78.00,43.44 78.00,42.84 C78.00,41.80 76.37,42.00 72.75,43.49 C69.99,44.63 70.62,41.90 73.75,39.22 L 76.50 36.86 L 73.22 37.41 C70.42,37.88 69.77,37.59 68.80,35.46 C67.24,32.03 65.50,32.94 65.50,37.19 C65.50,39.11 64.88,41.43 64.13,42.34 C62.73,44.03 63.15,44.37 66.25,44.05 C68.30,43.84 68.52,45.08 66.76,46.84 C65.77,47.83 65.82,48.28 67.01,49.06 C68.28,49.89 68.15,50.33 66.19,51.98 L 63.89 53.91 L 65.94 55.20 C67.07,55.90 68.00,57.42 68.00,58.57 C68.00,59.72 68.29,60.95 68.64,61.31 ZM 89.26 57.45 C90.29,58.57 90.81,58.47 92.34,56.85 C93.36,55.76 93.91,54.20 93.57,53.31 C92.79,51.29 95.09,46.00 96.74,46.00 C97.43,46.00 98.03,46.56 98.07,47.25 C98.10,47.94 98.63,47.48 99.22,46.24 C100.76,43.06 99.45,42.30 95.97,44.36 C92.72,46.28 92.11,45.64 94.57,42.92 C96.01,41.33 95.95,40.96 93.89,38.59 C91.00,35.26 90.00,35.32 90.00,38.80 C90.00,42.10 88.40,43.99 85.55,44.03 C83.53,44.07 83.53,44.10 85.69,45.89 C87.32,47.26 87.59,48.01 86.74,48.86 C85.90,49.70 86.08,50.34 87.47,51.35 C88.64,52.21 89.08,53.34 88.67,54.41 C88.31,55.34 88.58,56.71 89.26,57.45 ZM 111.55 22.66 C116.37,26.18 122.39,22.78 121.82,16.86 C121.57,14.27 120.89,13.32 118.75,12.58 C113.08,10.59 107.25,15.52 111.54,18.66 C113.22,19.88 113.22,19.98 111.51,20.63 C109.80,21.29 109.80,21.38 111.55,22.66 ZM 126.44 22.47 C128.69,24.24 132.29,24.45 135.06,22.97 C136.59,22.15 136.91,21.09 136.62,17.86 C136.42,15.61 135.64,13.38 134.88,12.90 C131.81,10.96 124.98,12.54 126.42,14.87 C126.90,15.65 127.64,15.62 129.00,14.77 C131.23,13.37 132.91,14.49 131.18,16.22 C129.54,17.86 129.71,19.00 131.58,19.00 C132.45,19.00 132.97,19.56 132.74,20.25 C132.47,21.03 130.85,21.39 128.41,21.22 C124.74,20.95 124.62,21.03 126.44,22.47 ZM 141.44 22.49 C143.69,24.24 147.30,24.44 150.07,22.96 C152.09,21.88 152.69,18.54 151.04,17.53 C150.52,17.20 150.36,16.23 150.69,15.37 C151.84,12.36 145.98,10.87 141.80,13.11 C140.24,13.94 140.05,14.41 141.03,15.02 C141.74,15.46 143.13,15.31 144.12,14.70 C146.26,13.36 147.87,14.53 146.18,16.22 C144.54,17.86 144.71,19.00 146.58,19.00 C147.45,19.00 147.97,19.56 147.73,20.25 C147.46,21.03 145.82,21.40 143.39,21.24 C139.75,20.99 139.62,21.07 141.44,22.49 ZM 153.49 51.99 C154.17,53.08 160.00,52.85 160.00,51.73 C160.00,51.31 161.57,50.22 163.50,49.30 C165.43,48.38 167.00,47.26 167.00,46.81 C167.00,45.65 164.24,45.81 163.49,47.02 C162.22,49.08 161.17,46.88 162.02,43.93 C162.93,40.74 162.41,38.00 160.89,38.00 C160.40,38.00 159.99,40.14 159.98,42.75 C159.97,48.42 159.38,49.48 155.71,50.38 C154.17,50.75 153.18,51.48 153.49,51.99 ZM 101.00 20.05 C101.00,23.41 101.31,24.09 102.75,23.81 C104.13,23.55 104.56,22.27 104.80,17.74 C105.14,11.28 104.37,10.74 99.09,13.75 C95.38,15.86 95.05,17.46 98.50,16.59 C100.86,16.00 101.00,16.19 101.00,20.05 ZM 116.77 53.25 C117.01,55.86 117.55,58.00 117.98,58.00 C118.89,58.00 119.97,54.45 119.99,51.37 C119.99,50.20 120.68,48.68 121.50,48.00 C123.75,46.13 123.31,45.00 120.41,45.24 C117.09,45.51 116.23,47.38 116.77,53.25 ZM 132.67 57.58 C133.17,58.88 133.79,57.99 135.04,54.16 C136.95,48.30 137.05,44.85 135.33,44.28 C134.31,43.94 132.75,46.64 133.18,48.00 C133.27,48.28 132.81,49.49 132.17,50.69 C131.39,52.15 131.33,53.09 132.01,53.51 C132.57,53.85 132.80,54.52 132.51,54.98 C132.23,55.44 132.30,56.61 132.67,57.58 ZM 108.64 249.50 C109.47,251.67 111.00,251.34 111.00,249.00 C111.00,247.90 111.44,247.00 111.97,247.00 C112.50,247.00 112.71,246.40 112.43,245.67 C112.05,244.68 112.71,244.45 114.96,244.78 C116.93,245.07 118.00,244.80 118.00,244.01 C118.00,243.21 117.15,243.00 115.56,243.40 C114.22,243.73 112.84,243.55 112.49,242.99 C111.49,241.36 110.00,242.89 110.00,245.56 C110.00,246.90 109.56,248.00 109.03,248.00 C108.50,248.00 108.32,248.68 108.64,249.50 ZM 129.00 251.14 C129.00,253.93 129.38,255.03 130.25,254.73 C130.94,254.49 131.37,253.55 131.21,252.65 C131.04,251.74 131.41,251.00 132.02,251.00 C132.62,251.00 132.86,251.42 132.54,251.93 C132.23,252.44 132.39,253.13 132.91,253.45 C134.89,254.67 134.98,251.98 133.04,250.04 C131.92,248.92 131.00,247.52 131.00,246.94 C131.00,246.36 130.55,246.16 130.00,246.50 C129.45,246.84 129.00,248.93 129.00,251.14 ZM 82.68 58.35 C83.06,58.73 83.78,58.62 84.28,58.12 C85.38,57.02 84.23,51.00 82.92,51.00 C81.86,51.00 81.66,57.32 82.68,58.35 ZM 164.41 133.08 C164.66,133.33 164.07,134.58 163.11,135.86 L 161.35 138.19 L 159.68 135.63 C157.48,132.28 157.54,131.28 159.81,133.33 C161.20,134.58 161.90,134.70 162.80,133.80 C163.44,133.16 164.17,132.84 164.41,133.08 ZM 140.75 48.41 C141.54,49.21 143.11,47.99 142.53,47.04 C142.25,46.59 142.69,45.67 143.51,44.99 C145.34,43.47 145.44,42.00 143.72,42.00 C142.38,42.00 139.83,47.50 140.75,48.41 ZM 109.48 41.50 C108.85,43.16 109.19,43.06 111.49,40.85 C113.00,39.40 113.94,37.71 113.56,37.10 C112.56,35.47 111.30,35.76 110.73,37.75 C110.45,38.71 109.89,40.40 109.48,41.50 ZM 97.71 248.75 C98.21,249.98 98.52,249.36 98.78,246.65 C99.17,242.44 98.38,240.77 97.04,242.94 C96.20,244.30 96.31,245.31 97.71,248.75 ZM 164.61 56.86 C165.90,58.69 166.45,58.87 167.66,57.86 C168.94,56.81 168.77,56.44 166.49,55.24 C163.16,53.50 162.60,53.98 164.61,56.86 ZM 107.00 52.42 C107.00,54.10 107.55,55.00 108.57,55.00 C109.61,55.00 110.03,54.27 109.82,52.83 C109.35,49.63 107.00,49.28 107.00,52.42 ZM 117.50 15.93 C117.50,17.51 115.74,18.40 114.69,17.35 C113.31,15.98 114.03,13.86 115.75,14.19 C116.71,14.38 117.50,15.16 117.50,15.93 ZM 32.72 221.28 C32.34,222.27 33.03,222.67 35.12,222.67 C36.78,222.67 37.90,222.20 37.70,221.58 C37.16,219.94 33.33,219.70 32.72,221.28 ZM 24.03 228.05 C26.01,229.33 28.23,228.83 28.79,227.00 C29.16,225.80 28.99,225.75 27.95,226.73 C26.98,227.64 26.30,227.66 25.30,226.83 C24.56,226.22 23.64,226.03 23.25,226.41 C22.87,226.80 23.22,227.53 24.03,228.05 ZM 110.51 47.02 C110.86,47.58 111.56,47.77 112.07,47.46 C113.28,46.71 113.28,44.00 112.06,44.00 C110.71,44.00 109.77,45.82 110.51,47.02 ZM 129.51 43.02 C129.86,43.58 130.56,43.77 131.07,43.46 C132.28,42.71 132.28,40.00 131.06,40.00 C129.71,40.00 128.77,41.82 129.51,43.02 ZM 104.61 248.27 C105.38,249.04 107.94,246.74 107.36,245.79 C106.85,244.94 104.00,245.91 104.00,246.94 C104.00,247.34 104.27,247.94 104.61,248.27 ZM 134.99 40.49 C136.24,41.99 138.00,41.67 138.00,39.94 C138.00,39.42 137.04,39.00 135.88,39.00 C134.11,39.00 133.96,39.25 134.99,40.49 ZM 85.00 242.11 C85.00,243.16 85.32,243.20 87.41,242.40 C88.28,242.06 88.75,241.41 88.46,240.94 C87.82,239.90 85.00,240.86 85.00,242.11 ZM 141.00 37.58 C141.00,39.35 143.15,39.04 143.77,37.19 C143.99,36.53 143.45,36.00 142.58,36.00 C141.71,36.00 141.00,36.71 141.00,37.58 ZM 165.19 238.94 C164.94,239.69 165.31,240.06 166.06,239.81 C166.78,239.57 167.57,238.78 167.81,238.06 C168.06,237.31 167.69,236.94 166.94,237.19 C166.22,237.43 165.43,238.22 165.19,238.94 ZM 68.00 241.00 C68.00,241.55 68.42,242.00 68.94,242.00 C69.46,242.00 70.16,241.55 70.50,241.00 C70.84,240.45 70.42,240.00 69.56,240.00 C68.70,240.00 68.00,240.45 68.00,241.00 ZM 91.00 241.00 C91.00,241.55 91.45,242.00 92.00,242.00 C92.55,242.00 93.00,241.55 93.00,241.00 C93.00,240.45 92.55,240.00 92.00,240.00 C91.45,240.00 91.00,240.45 91.00,241.00 ZM 63.42 217.05 C75.07,221.01 90.01,225.87 95.50,227.35 C98.72,228.21 101.62,228.98 104.19,229.63 C100.27,228.71 96.14,227.64 91.97,226.44 C86.95,224.99 73.96,220.68 63.42,217.05 ZM 8.84 144.82 C10.17,140.64 12.52,137.86 16.66,133.94 C13.10,137.31 10.39,141.13 8.84,144.82 ZM 237.55 139.86 C238.32,140.84 238.94,141.71 239.30,142.39 C240.15,143.98 240.67,145.20 241.00,147.29 C240.30,144.65 239.18,142.21 237.55,139.86 ZM 225.31 199.96 C227.97,201.90 230.09,203.78 230.37,204.51 C230.42,204.66 230.48,204.97 230.53,205.43 C229.74,203.75 228.04,201.97 225.31,199.96 ZM 241.50 181.13 L 241.50 182.40 L 238.46 183.04 C240.27,182.61 241.09,182.14 241.50,181.13 ZM 21.51 133.31 C19.97,137.02 19.54,148.98 20.84,152.26 C20.74,152.08 20.67,151.90 20.62,151.73 C19.49,147.51 20.00,136.93 21.51,133.31 ZM 226.35 129.32 C226.75,128.92 229.08,130.84 231.68,133.40 C228.92,130.94 226.55,129.12 226.35,129.32 ZM 20.30 203.44 C20.36,203.32 20.42,203.21 20.48,203.10 C21.69,201.07 23.97,199.69 28.39,196.73 C23.76,199.83 21.46,201.61 20.30,203.44 ZM 146.00 230.13 C146.27,230.06 146.55,229.99 146.82,229.93 C142.51,231.09 138.62,231.94 135.14,232.48 C138.07,231.93 141.77,231.13 146.00,230.13 ZM 21.03 152.58 C21.79,153.57 24.28,155.24 27.09,156.64 C27.02,156.60 26.94,156.57 26.86,156.53 C23.82,155.14 21.87,153.82 21.03,152.58 ZM 18.10 235.41 C18.42,236.31 19.10,237.11 20.08,237.38 C18.61,237.07 18.09,236.75 18.10,235.41 ZM 34.61 240.88 C40.12,242.44 46.99,244.60 58.00,248.16 C49.26,245.34 40.51,242.62 34.61,240.88 ZM 52.41 197.25 C51.89,200.18 50.93,203.62 49.98,205.83 C48.74,208.70 47.92,211.24 48.15,211.48 C47.92,211.25 48.71,208.78 49.91,206.00 C50.81,203.89 51.79,200.39 52.41,197.25 ZM 199.84 209.03 C199.96,209.40 200.05,209.69 200.10,209.87 C200.34,210.70 198.23,211.90 193.29,213.72 C198.24,211.90 200.34,210.70 200.10,209.87 C200.04,209.70 199.96,209.41 199.84,209.03 Z" fill="rgba(5,59,115,1)"/>
<path d="M 124.50 73.00 L 135.00 73.00 L 135.00 105.68 L 136.94 108.33 C135.22,106.07 134.75,105.61 134.60,105.70 C134.49,105.76 134.54,106.12 134.39,106.28 C134.05,106.62 146.53,124.32 162.14,145.62 C172.09,159.21 181.02,171.44 186.28,178.66 L 162.45 146.11 L 133.00 105.89 L 133.00 90.95 C133.00,82.73 132.64,76.00 132.19,76.00 C131.75,76.00 130.51,76.66 129.44,77.47 C128.35,78.30 127.15,78.77 125.94,78.88 C127.33,78.70 128.71,77.99 130.04,76.75 C131.37,75.51 132.81,74.61 133.23,74.75 C133.65,74.89 134.00,74.55 134.00,74.00 C134.00,73.40 130.17,73.00 124.50,73.00 ZM 168.00 92.00 C168.00,102.67 167.63,109.00 167.00,109.00 C166.37,109.00 166.00,102.33 166.00,91.00 L 166.00 73.00 L 169.06 73.00 C170.84,73.00 171.86,73.42 171.50,74.00 C171.16,74.55 170.23,75.00 169.44,75.00 C168.24,75.00 168.00,77.86 168.00,92.00 ZM 71.43 110.43 C70.56,111.29 69.66,112.00 69.43,112.00 C68.65,112.00 68.98,110.42 69.98,109.42 C70.51,108.89 71.07,100.60 71.23,90.99 C71.49,74.42 71.60,73.51 73.50,73.17 C75.12,72.87 75.26,73.05 74.25,74.10 C73.35,75.04 73.00,80.10 73.00,92.13 C73.00,106.00 72.73,109.13 71.43,110.43 ZM 53.58 155.85 C50.78,161.25 50.00,159.56 50.00,148.11 C50.00,138.50 50.24,136.94 52.08,134.86 C53.86,132.85 54.05,132.79 53.37,134.50 C52.93,135.60 52.41,140.44 52.21,145.25 C51.89,153.09 52.03,153.93 53.53,153.35 C55.09,152.75 55.09,152.93 53.58,155.85 ZM 108.64 249.50 C108.32,248.68 108.50,248.00 109.03,248.00 C109.56,248.00 110.00,246.90 110.00,245.56 C110.00,242.89 111.49,241.36 112.49,242.99 C112.84,243.55 114.22,243.73 115.56,243.40 C117.15,243.00 118.00,243.21 118.00,244.01 C118.00,244.80 116.93,245.07 114.96,244.78 C112.71,244.45 112.05,244.68 112.43,245.67 C112.71,246.40 112.50,247.00 111.97,247.00 C111.44,247.00 111.00,247.90 111.00,249.00 C111.00,251.34 109.47,251.67 108.64,249.50 ZM 129.00 251.14 C129.00,248.93 129.45,246.84 130.00,246.50 C130.55,246.16 131.00,246.36 131.00,246.94 C131.00,247.52 131.92,248.92 133.04,250.04 C134.98,251.98 134.89,254.67 132.91,253.45 C132.39,253.13 132.23,252.44 132.54,251.93 C132.86,251.42 132.62,251.00 132.02,251.00 C131.41,251.00 131.04,251.74 131.21,252.65 C131.37,253.55 130.94,254.49 130.25,254.73 C129.38,255.03 129.00,253.93 129.00,251.14 ZM 32.72 221.28 C33.33,219.70 37.16,219.94 37.70,221.58 C37.90,222.20 36.78,222.67 35.12,222.67 C33.03,222.67 32.34,222.27 32.72,221.28 ZM 104.61 248.27 C104.27,247.94 104.00,247.34 104.00,246.94 C104.00,245.91 106.85,244.94 107.36,245.79 C107.94,246.74 105.38,249.04 104.61,248.27 ZM 85.00 242.11 C85.00,240.86 87.82,239.90 88.46,240.94 C88.75,241.41 88.28,242.06 87.41,242.40 C85.32,243.20 85.00,243.16 85.00,242.11 ZM 165.19 238.94 C165.43,238.22 166.22,237.43 166.94,237.19 C167.69,236.94 168.06,237.31 167.81,238.06 C167.57,238.78 166.78,239.57 166.06,239.81 C165.31,240.06 164.94,239.69 165.19,238.94 ZM 68.00 241.00 C68.00,240.45 68.70,240.00 69.56,240.00 C70.42,240.00 70.84,240.45 70.50,241.00 C70.16,241.55 69.46,242.00 68.94,242.00 C68.42,242.00 68.00,241.55 68.00,241.00 ZM 91.00 241.00 C91.00,240.45 91.45,240.00 92.00,240.00 C92.55,240.00 93.00,240.45 93.00,241.00 C93.00,241.55 92.55,242.00 92.00,242.00 C91.45,242.00 91.00,241.55 91.00,241.00 ZM 188.23 191.19 L 187.48 192.14 L 157.79 151.73 C141.48,129.54 127.43,110.79 126.51,110.01 C127.39,110.74 141.02,128.89 156.80,150.36 C172.59,171.82 185.99,190.03 186.59,190.83 C187.15,191.58 187.57,191.76 188.23,191.19 Z" fill="rgba(64,94,136,1)"/>
<path d="M 214.00 192.96 C216.18,194.43 216.71,194.30 221.32,191.14 C224.57,188.91 227.86,187.02 230.87,185.62 C227.83,187.04 224.51,188.95 221.17,191.24 L 216.83 194.21 L 223.40 198.61 C227.20,201.17 229.51,203.32 230.49,205.34 C230.19,205.09 229.71,205.00 229.01,205.00 C223.38,205.00 200.81,211.15 184.01,217.02 C186.35,216.17 188.81,215.30 191.00,214.54 C197.58,212.25 200.38,210.82 200.10,209.87 C199.88,209.12 198.93,206.25 197.99,203.50 C197.05,200.75 195.98,196.44 195.61,193.93 C195.01,189.86 195.31,188.72 198.36,183.66 L 201.79 177.97 L 204.30 182.23 C207.79,188.17 211.72,191.70 213.46,190.47 C214.82,189.51 216.14,188.61 217.41,187.75 C217.09,188.00 216.78,188.25 216.50,188.50 C213.18,191.36 212.76,192.12 214.00,192.96 ZM 54.22 213.83 C38.63,208.68 25.60,205.12 21.75,205.05 C20.47,205.03 19.77,205.12 19.40,205.62 C20.05,202.78 22.00,201.01 28.39,196.73 L 32.27 194.13 L 31.43 193.59 C32.68,194.12 33.40,193.77 34.94,192.81 C36.62,191.76 36.47,191.36 32.30,188.22 C33.32,188.92 34.40,189.67 35.55,190.47 C37.30,191.71 42.37,187.09 45.11,181.75 C46.17,179.69 47.37,178.00 47.77,178.01 C48.17,178.01 49.66,180.21 51.08,182.90 C53.43,187.34 53.60,188.38 52.88,194.36 C52.44,197.97 51.11,203.21 49.91,206.00 C48.71,208.78 47.92,211.25 48.15,211.48 C48.34,211.67 50.68,212.56 54.22,213.83 ZM 214.97 160.38 C216.49,159.54 218.18,158.68 220.05,157.79 L 228.60 153.73 L 228.85 146.12 C229.02,141.16 228.56,136.96 227.54,134.09 C226.68,131.67 226.15,129.52 226.35,129.32 C226.55,129.11 229.06,131.04 231.91,133.61 C237.96,139.05 240.89,144.24 241.68,150.92 L 241.81 152.05 C241.55,151.34 241.02,151.00 240.18,151.00 C235.74,151.00 223.31,155.86 214.97,160.38 ZM 44.87 169.09 C42.74,163.91 21.89,152.77 11.58,151.36 C9.03,151.01 7.85,150.88 7.36,151.22 C7.44,145.89 10.95,139.34 16.66,133.94 C19.66,131.10 22.32,128.99 22.57,129.24 C22.82,129.49 22.35,131.32 21.51,133.31 C20.00,136.93 19.49,147.51 20.62,151.73 C21.02,153.21 23.11,154.82 26.86,156.53 C35.92,160.67 43.62,166.06 44.87,169.09 ZM 104.93 136.14 L 124.21 109.03 L 124.06 95.52 C123.96,86.66 124.27,82.00 124.95,82.00 C125.63,82.00 126.00,86.68 126.00,95.26 L 126.00 108.51 L 144.79 134.10 C134.63,120.42 127.15,110.54 126.51,110.01 C125.56,109.22 124.56,109.05 124.03,109.59 C123.66,109.97 115.75,120.97 104.93,136.14 ZM 97.71 248.75 C96.31,245.31 96.20,244.30 97.04,242.94 C98.38,240.77 99.17,242.44 98.78,246.65 C98.52,249.36 98.21,249.98 97.71,248.75 ZM 24.03 228.05 C23.22,227.53 22.87,226.80 23.25,226.41 C23.64,226.03 24.56,226.22 25.30,226.83 C26.30,227.66 26.98,227.64 27.95,226.73 C28.99,225.75 29.16,225.80 28.79,227.00 C28.23,228.83 26.01,229.33 24.03,228.05 ZM 127.00 233.21 C121.03,233.24 112.87,231.92 102.09,229.13 C112.57,231.70 121.81,233.24 127.00,233.21 ZM 227.30 181.64 C232.79,178.62 237.01,177.05 239.82,177.02 C240.04,177.02 240.24,177.03 240.41,177.04 C239.90,177.08 239.22,177.18 238.33,177.32 C235.79,177.73 231.54,179.46 227.30,181.64 ZM 182.93 222.87 C195.40,218.39 205.14,215.41 213.90,213.41 C205.28,215.48 194.30,218.82 182.93,222.87 ZM 242.00 153.62 L 242.24 155.71 L 237.93 156.39 C234.35,156.97 229.37,158.67 224.31,160.92 C229.35,158.67 234.29,156.98 237.81,156.41 C237.85,156.41 237.89,156.40 237.93,156.39 C241.23,155.86 241.94,155.40 242.00,153.62 ZM 224.48 211.37 C230.13,210.39 230.55,209.98 230.82,207.69 C230.88,207.18 230.90,206.76 230.89,206.42 C231.14,207.41 231.07,208.38 230.70,209.35 C230.39,210.14 227.87,210.98 224.65,211.35 C224.59,211.36 224.54,211.37 224.48,211.37 ZM 13.96 183.88 C18.53,185.62 23.86,188.43 27.83,191.26 L 26.03 190.10 C22.71,187.95 17.87,185.52 13.96,183.88 ZM 7.00 179.36 C7.03,180.73 7.43,181.45 8.90,182.13 C8.53,182.04 8.21,182.00 7.96,182.00 C7.43,182.00 7.00,180.88 7.00,179.50 C7.00,179.45 7.00,179.41 7.00,179.36 ZM 23.35 182.53 C18.47,179.89 13.43,177.78 10.46,177.30 C9.75,177.18 9.18,177.10 8.73,177.07 C10.20,176.92 12.76,177.70 16.96,179.40 C19.01,180.24 21.05,181.23 23.35,182.53 ZM 187.21 191.44 C187.76,191.50 188.82,190.64 189.78,189.30 C188.46,191.16 187.83,191.77 187.21,191.44 ZM 19.05 209.29 C19.22,210.77 19.84,211.00 21.93,211.00 C24.41,211.00 30.90,212.48 39.18,214.81 C30.88,212.47 24.38,211.00 21.86,211.00 C19.68,211.00 19.08,210.90 19.05,209.29 ZM 7.94 154.58 C8.73,155.32 10.25,155.89 13.23,156.68 C10.00,155.85 8.59,155.39 7.94,154.58 ZM 204.58 170.24 C204.88,168.88 205.65,167.53 206.94,166.15 C205.77,167.54 204.82,169.15 204.58,170.24 ZM 241.85 179.37 C241.84,179.48 241.83,179.59 241.82,179.71 C241.71,180.64 241.52,181.28 241.13,181.77 C241.53,181.26 241.71,180.58 241.83,179.57 C241.84,179.50 241.85,179.43 241.85,179.37 ZM 186.17 190.27 C186.43,190.61 186.62,190.87 186.76,191.05 C186.70,190.98 186.65,190.91 186.59,190.83 C186.54,190.76 186.40,190.57 186.17,190.27 Z" fill="rgba(131,153,172,1)"/>
<path d="M 115.26 225.42 C109.89,223.56 105.34,222.03 105.14,222.02 C103.69,221.94 124.57,191.00 126.07,191.00 C126.79,191.00 141.57,210.77 146.43,218.23 C148.21,220.96 148.20,220.97 145.36,222.11 C143.78,222.74 138.57,224.50 133.76,226.02 L 125.01 228.79 Z" fill="rgba(163,193,216,1)"/>
<path d="M 119.00 263.40 C117.62,263.18 113.12,262.51 109.00,261.92 C97.54,260.27 84.82,256.84 58.00,248.16 C36.54,241.22 30.79,239.59 20.25,237.42 C17.42,236.84 16.97,232.00 19.75,232.01 C23.71,232.02 39.67,236.49 62.39,243.95 C90.44,253.15 98.49,255.29 113.50,257.50 C130.64,260.03 144.22,257.74 174.00,247.29 C201.14,237.77 209.49,235.17 218.31,233.50 C229.49,231.38 231.00,231.48 231.00,234.37 C231.00,236.53 230.46,236.80 224.90,237.43 C216.81,238.35 205.22,241.76 183.89,249.52 C164.40,256.61 155.44,259.25 143.50,261.41 C134.45,263.05 122.73,264.00 119.00,263.40 ZM 42.65 21.00 L 91.00 21.00 L 91.00 26.00 L 47.35 26.00 L 42.65 21.00 ZM 157.67 25.33 C157.30,24.97 157.00,23.84 157.00,22.83 C157.00,21.11 158.41,21.00 181.67,21.00 L 206.35 21.00 L 201.65 26.00 L 179.99 26.00 C168.08,26.00 158.03,25.70 157.67,25.33 ZM 214.00 192.96 C212.76,192.12 213.18,191.36 216.50,188.50 C221.54,184.15 233.30,178.13 238.33,177.32 C242.07,176.73 242.15,176.78 241.83,179.57 C241.55,181.97 240.91,182.54 237.73,183.20 C233.39,184.09 227.30,187.04 221.32,191.14 C216.71,194.30 216.18,194.43 214.00,192.96 ZM 28.00 191.38 C23.20,187.93 16.34,184.48 11.25,182.95 C7.74,181.90 7.00,181.25 7.00,179.21 C7.00,176.95 7.29,176.79 10.46,177.30 C15.25,178.08 25.48,183.11 31.67,187.75 C36.45,191.32 36.70,191.71 34.94,192.81 C32.41,194.39 32.08,194.32 28.00,191.38 Z" fill="rgba(198,31,37,1)"/>
<path d="M 109.90 236.02 C97.52,233.71 86.28,230.45 64.84,222.95 C46.25,216.44 26.70,211.00 21.93,211.00 C19.34,211.00 19.00,210.65 19.00,208.00 C19.00,205.38 19.35,205.01 21.75,205.05 C26.42,205.13 44.62,210.36 64.50,217.33 C95.58,228.23 115.43,233.27 127.00,233.21 C137.45,233.15 153.90,228.71 176.00,219.98 C192.58,213.43 222.42,205.00 229.01,205.00 C230.73,205.00 231.07,205.51 230.82,207.69 C230.52,210.22 230.04,210.45 222.50,211.71 C210.43,213.72 197.57,217.46 178.51,224.48 C158.14,231.99 150.40,234.34 139.14,236.44 C128.69,238.39 122.09,238.30 109.90,236.02 ZM 98.24 218.66 C95.90,217.47 94.16,216.05 94.37,215.50 C94.58,214.95 100.21,206.55 106.88,196.83 C113.55,187.11 119.00,178.65 119.00,178.03 C119.00,176.47 103.94,156.72 103.27,157.40 C102.96,157.70 105.93,162.22 109.86,167.45 C113.79,172.67 117.00,177.45 117.00,178.05 C117.00,179.62 92.81,215.00 91.74,215.00 C90.49,215.00 78.21,206.84 74.00,203.21 L 70.50 200.20 L 74.55 194.35 C95.81,163.62 124.43,124.01 125.35,124.04 C125.98,124.07 138.75,141.03 153.73,161.75 L 180.95 199.42 L 178.73 201.83 C176.20,204.57 163.12,214.00 161.85,214.00 C161.40,214.00 155.14,206.08 147.95,196.39 C140.76,186.71 134.63,179.03 134.34,179.33 C134.04,179.63 139.46,187.59 146.40,197.02 C153.33,206.44 159.00,214.56 159.00,215.06 C159.00,216.17 151.00,220.12 150.00,219.50 C149.60,219.26 144.24,212.07 138.08,203.53 C131.93,194.99 126.55,188.00 126.13,188.00 C125.71,188.00 120.27,195.43 114.03,204.50 C107.79,213.57 102.65,220.96 102.60,220.91 C102.54,220.86 100.58,219.85 98.24,218.66 ZM 61.29 190.09 L 59.09 187.29 L 88.04 146.96 L 117.00 106.62 L 117.00 91.31 C117.00,75.18 117.26,74.37 121.44,77.53 C123.89,79.38 126.94,79.36 129.44,77.47 C130.51,76.66 131.75,76.00 132.19,76.00 C132.64,76.00 133.00,82.73 133.00,90.95 L 133.00 105.89 L 162.45 146.11 L 191.90 186.34 L 189.82 189.25 C188.69,190.85 187.41,191.78 186.98,191.33 C186.56,190.87 172.67,172.05 156.11,149.51 L 126.00 108.51 L 126.00 95.26 C126.00,86.68 125.63,82.00 124.95,82.00 C124.27,82.00 123.96,86.66 124.06,95.52 L 124.21 109.03 L 94.53 150.77 C78.21,173.72 64.55,192.59 64.18,192.69 C63.80,192.80 62.51,191.62 61.29,190.09 ZM 52.81 176.31 L 48.50 167.50 L 48.22 118.25 L 47.95 69.00 L 124.97 69.00 L 202.00 69.00 L 201.99 115.75 C201.99,145.87 201.61,163.92 200.92,166.50 C199.54,171.63 193.93,184.00 192.98,184.00 C192.57,184.00 179.37,166.38 163.62,144.84 L 135.00 105.68 L 135.00 89.34 L 135.00 73.00 L 125.00 73.00 L 115.00 73.00 L 115.00 89.75 L 115.00 106.50 L 87.03 145.49 C71.65,166.93 58.63,184.62 58.09,184.80 C57.56,184.98 55.18,181.16 52.81,176.31 ZM 53.58 155.85 C55.09,152.93 55.09,152.75 53.53,153.35 C52.03,153.93 51.89,153.09 52.21,145.25 C52.41,140.44 52.93,135.60 53.37,134.50 C54.05,132.79 53.86,132.85 52.08,134.86 C50.24,136.94 50.00,138.50 50.00,148.11 C50.00,159.56 50.78,161.25 53.58,155.85 ZM 164.41 133.08 C164.17,132.84 163.44,133.16 162.80,133.80 C161.90,134.70 161.20,134.58 159.81,133.33 C157.54,131.28 157.48,132.28 159.68,135.63 L 161.35 138.19 L 163.11 135.86 C164.07,134.58 164.66,133.33 164.41,133.08 ZM 71.43 110.43 C72.73,109.13 73.00,106.00 73.00,92.13 C73.00,80.10 73.35,75.04 74.25,74.10 C75.26,73.05 75.12,72.87 73.50,73.17 C71.60,73.51 71.49,74.42 71.23,90.99 C71.07,100.60 70.51,108.89 69.98,109.42 C68.98,110.42 68.65,112.00 69.43,112.00 C69.66,112.00 70.56,111.29 71.43,110.43 ZM 168.00 92.00 C168.00,77.86 168.24,75.00 169.44,75.00 C170.23,75.00 171.16,74.55 171.50,74.00 C171.86,73.42 170.84,73.00 169.06,73.00 L 166.00 73.00 L 166.00 91.00 C166.00,102.33 166.37,109.00 167.00,109.00 C167.63,109.00 168.00,102.67 168.00,92.00 ZM 41.99 170.49 C38.54,166.82 22.99,159.16 14.76,157.08 C8.66,155.53 7.45,154.88 7.16,152.97 C6.84,150.81 7.05,150.73 11.58,151.36 C21.99,152.78 43.13,164.11 44.92,169.23 C46.21,172.89 44.81,173.49 41.99,170.49 ZM 204.58 170.24 C204.91,168.73 206.61,166.23 208.34,164.68 C213.88,159.74 234.22,151.00 240.18,151.00 C241.43,151.00 242.00,151.75 242.00,153.37 C242.00,155.38 241.36,155.85 237.81,156.41 C231.06,157.49 219.06,162.75 211.23,168.06 C204.08,172.91 203.98,172.94 204.58,170.24 ZM 68.64 61.31 C68.29,60.95 68.00,59.72 68.00,58.57 C68.00,57.42 67.07,55.90 65.94,55.20 L 63.89 53.91 L 66.19 51.98 C68.15,50.33 68.28,49.89 67.01,49.06 C65.82,48.28 65.77,47.83 66.76,46.84 C68.52,45.08 68.30,43.84 66.25,44.05 C63.15,44.37 62.73,44.03 64.13,42.34 C64.88,41.43 65.50,39.11 65.50,37.19 C65.50,32.94 67.24,32.03 68.80,35.46 C69.77,37.59 70.42,37.88 73.22,37.41 L 76.50 36.86 L 73.75 39.22 C70.62,41.90 69.99,44.63 72.75,43.49 C76.37,42.00 78.00,41.80 78.00,42.84 C78.00,43.44 76.20,44.46 74.00,45.12 C71.22,45.95 70.00,46.88 70.00,48.16 C70.00,49.22 70.72,50.00 71.70,50.00 C73.02,50.00 73.13,50.27 72.20,51.20 C71.54,51.86 71.00,54.31 71.00,56.64 C71.00,60.70 70.00,62.67 68.64,61.31 ZM 181.54 60.07 C181.23,59.56 181.42,58.86 181.98,58.51 C182.54,58.16 183.00,57.18 183.00,56.32 C183.00,54.79 181.81,54.82 177.75,56.49 C176.68,56.94 176.00,56.77 176.00,56.06 C176.00,55.42 177.46,54.29 179.25,53.54 C183.64,51.70 184.08,51.10 182.70,48.89 C181.32,46.69 180.00,46.42 180.00,48.35 C180.00,50.05 176.56,53.22 175.67,52.34 C174.55,51.22 174.90,50.17 177.08,48.14 C178.40,46.91 178.76,45.97 178.08,45.55 C176.24,44.41 176.79,40.88 178.75,41.21 C180.07,41.43 180.42,40.93 180.17,39.16 C179.90,37.19 180.17,36.92 181.92,37.48 C183.42,37.95 184.00,37.70 184.00,36.57 C184.00,35.71 184.68,35.00 185.50,35.00 C186.32,35.00 187.00,35.67 187.00,36.50 C187.00,37.33 187.39,38.00 187.88,38.00 C188.93,38.00 188.11,46.77 186.83,49.25 C186.11,50.65 186.35,51.00 188.05,51.00 C190.80,51.00 190.06,53.39 187.17,53.82 C185.43,54.08 185.00,54.81 185.00,57.57 C185.00,60.89 182.96,62.36 181.54,60.07 ZM 82.68 58.35 C81.66,57.32 81.86,51.00 82.92,51.00 C84.23,51.00 85.38,57.02 84.28,58.12 C83.78,58.62 83.06,58.73 82.68,58.35 ZM 89.26 57.45 C88.58,56.71 88.31,55.34 88.67,54.41 C89.08,53.34 88.64,52.21 87.47,51.35 C86.08,50.34 85.90,49.70 86.74,48.86 C87.59,48.01 87.32,47.26 85.69,45.89 C83.53,44.10 83.53,44.07 85.55,44.03 C88.40,43.99 90.00,42.10 90.00,38.80 C90.00,35.32 91.00,35.26 93.89,38.59 C95.95,40.96 96.01,41.33 94.57,42.92 C92.11,45.64 92.72,46.28 95.97,44.36 C99.45,42.30 100.76,43.06 99.22,46.24 C98.63,47.48 98.10,47.94 98.07,47.25 C98.03,46.56 97.43,46.00 96.74,46.00 C95.09,46.00 92.79,51.29 93.57,53.31 C93.91,54.20 93.36,55.76 92.34,56.85 C90.81,58.47 90.29,58.57 89.26,57.45 ZM 132.67 57.58 C132.30,56.61 132.23,55.44 132.51,54.98 C132.80,54.52 132.57,53.85 132.01,53.51 C131.33,53.09 131.39,52.15 132.17,50.69 C132.81,49.49 133.27,48.28 133.18,48.00 C132.75,46.64 134.31,43.94 135.33,44.28 C137.05,44.85 136.95,48.30 135.04,54.16 C133.79,57.99 133.17,58.88 132.67,57.58 ZM 164.61 56.86 C162.60,53.98 163.16,53.50 166.49,55.24 C168.77,56.44 168.94,56.81 167.66,57.86 C166.45,58.87 165.90,58.69 164.61,56.86 ZM 116.77 53.25 C116.23,47.38 117.09,45.51 120.41,45.24 C123.31,45.00 123.75,46.13 121.50,48.00 C120.68,48.68 119.99,50.20 119.99,51.37 C119.97,54.45 118.89,58.00 117.98,58.00 C117.55,58.00 117.01,55.86 116.77,53.25 ZM 107.00 52.42 C107.00,49.28 109.35,49.63 109.82,52.83 C110.03,54.27 109.61,55.00 108.57,55.00 C107.55,55.00 107.00,54.10 107.00,52.42 ZM 153.49 51.99 C153.18,51.48 154.17,50.75 155.71,50.38 C159.38,49.48 159.97,48.42 159.98,42.75 C159.99,40.14 160.40,38.00 160.89,38.00 C162.41,38.00 162.93,40.74 162.02,43.93 C161.17,46.88 162.22,49.08 163.49,47.02 C164.24,45.81 167.00,45.65 167.00,46.81 C167.00,47.26 165.43,48.38 163.50,49.30 C161.57,50.22 160.00,51.31 160.00,51.73 C160.00,52.85 154.17,53.08 153.49,51.99 ZM 140.75 48.41 C139.83,47.50 142.38,42.00 143.72,42.00 C145.44,42.00 145.34,43.47 143.51,44.99 C142.69,45.67 142.25,46.59 142.53,47.04 C143.11,47.99 141.54,49.21 140.75,48.41 ZM 110.51 47.02 C109.77,45.82 110.71,44.00 112.06,44.00 C113.28,44.00 113.28,46.71 112.07,47.46 C111.56,47.77 110.86,47.58 110.51,47.02 ZM 129.51 43.02 C128.77,41.82 129.71,40.00 131.06,40.00 C132.28,40.00 132.28,42.71 131.07,43.46 C130.56,43.77 129.86,43.58 129.51,43.02 ZM 109.48 41.50 C109.89,40.40 110.45,38.71 110.73,37.75 C111.30,35.76 112.56,35.47 113.56,37.10 C113.94,37.71 113.00,39.40 111.49,40.85 C109.19,43.06 108.85,43.16 109.48,41.50 ZM 134.99 40.49 C133.96,39.25 134.11,39.00 135.88,39.00 C137.04,39.00 138.00,39.42 138.00,39.94 C138.00,41.67 136.24,41.99 134.99,40.49 ZM 141.00 37.58 C141.00,36.71 141.71,36.00 142.58,36.00 C143.45,36.00 143.99,36.53 143.77,37.19 C143.15,39.04 141.00,39.35 141.00,37.58 ZM 101.00 20.05 C101.00,16.19 100.86,16.00 98.50,16.59 C95.05,17.46 95.38,15.86 99.09,13.75 C104.37,10.74 105.14,11.28 104.80,17.74 C104.56,22.27 104.13,23.55 102.75,23.81 C101.31,24.09 101.00,23.41 101.00,20.05 ZM 111.55 22.66 C109.80,21.38 109.80,21.29 111.51,20.63 C113.22,19.98 113.22,19.88 111.54,18.66 C107.25,15.52 113.08,10.59 118.75,12.58 C120.89,13.32 121.57,14.27 121.82,16.86 C122.39,22.78 116.37,26.18 111.55,22.66 ZM 117.50 15.93 C117.50,15.16 116.71,14.38 115.75,14.19 C114.03,13.86 113.31,15.98 114.69,17.35 C115.74,18.40 117.50,17.51 117.50,15.93 ZM 126.44 22.47 C124.62,21.03 124.74,20.95 128.41,21.22 C130.85,21.39 132.47,21.03 132.74,20.25 C132.97,19.56 132.45,19.00 131.58,19.00 C129.71,19.00 129.54,17.86 131.18,16.22 C132.91,14.49 131.23,13.37 129.00,14.77 C127.64,15.62 126.90,15.65 126.42,14.87 C124.98,12.54 131.81,10.96 134.88,12.90 C135.64,13.38 136.42,15.61 136.62,17.86 C136.91,21.09 136.59,22.15 135.06,22.97 C132.29,24.45 128.69,24.24 126.44,22.47 ZM 141.44 22.49 C139.62,21.07 139.75,20.99 143.39,21.24 C145.82,21.40 147.46,21.03 147.73,20.25 C147.97,19.56 147.45,19.00 146.58,19.00 C144.71,19.00 144.54,17.86 146.18,16.22 C147.87,14.53 146.26,13.36 144.12,14.70 C143.13,15.31 141.74,15.46 141.03,15.02 C140.05,14.41 140.24,13.94 141.80,13.11 C145.98,10.87 151.84,12.36 150.69,15.37 C150.36,16.23 150.52,17.20 151.04,17.53 C152.69,18.54 152.09,21.88 150.07,22.96 C147.30,24.44 143.69,24.24 141.44,22.49 Z" fill="rgba(211,227,240,1)"/>
</g>
</svg>